<?xml version="1.0" standalone="no"?>
<!DOCTYPE svg PUBLIC "-//W3C//DTD SVG 20010904//EN"
 "http://www.w3.org/TR/2001/REC-SVG-20010904/DTD/svg10.dtd">
<svg version="1.0" xmlns="http://www.w3.org/2000/svg"
 width="500.000000pt" height="500.000000pt" viewBox="0 0 500.000000 500.000000"
 preserveAspectRatio="xMidYMid meet">

<g transform="translate(0.000000,500.000000) scale(0.100000,-0.100000)"
fill="#000000" stroke="none">
<path d="M1134 3508 c3 -50 6 -417 6 -815 l0 -723 61 0 62 0 -4 758 -4 757
1248 3 1247 2 0 -227 c0 -126 3 -468 7 -760 l6 -533 60 0 60 0 -6 188 c-4 103
-7 469 -7 815 l0 627 -1371 0 -1372 0 7 -92z"/>
<path d="M2894 2880 l-31 -31 -58 16 c-50 15 -66 16 -112 5 -123 -27 -186
-142 -133 -244 19 -39 19 -39 0 -64 -28 -35 -27 -110 2 -147 l22 -28 -27 -21
c-33 -27 -34 -57 -4 -116 33 -67 95 -95 207 -95 69 0 93 4 128 23 54 29 82 74
82 130 0 96 -48 128 -224 153 -86 11 -106 21 -106 50 0 16 6 18 64 12 86 -8
130 2 173 40 57 50 78 126 53 191 -8 22 -5 28 27 54 l36 29 -34 37 -34 37 -31
-31z m-91 -122 c26 -31 22 -93 -8 -123 -57 -58 -149 0 -130 83 14 68 95 91
138 40z m-31 -414 c72 -8 93 -22 84 -57 -16 -66 -200 -54 -221 14 -3 10 -1 28
5 40 9 17 18 20 43 15 18 -3 58 -8 89 -12z"/>
<path d="M2187 2864 c-153 -47 -209 -270 -103 -409 79 -103 240 -111 333 -18
56 56 56 75 -2 97 l-45 18 -34 -36 c-27 -29 -41 -36 -72 -36 -72 0 -114 54
-114 146 0 85 47 144 115 144 33 0 74 -27 86 -57 l8 -23 53 21 c29 11 54 22
56 24 7 6 -21 50 -51 83 -32 33 -107 63 -156 61 -14 0 -48 -7 -74 -15z"/>
<path d="M1130 1620 l0 -60 1375 0 1375 0 0 60 0 60 -1375 0 -1375 0 0 -60z"/>
</g>
</svg>
